<?xml version="1.0" encoding="UTF-8" standalone="no"?>
<!-- Created with Inkscape (http://www.inkscape.org/) -->

<svg
   width="1024"
   height="360"
   viewBox="0 0 270.93333 95.250003"
   version="1.1"
   id="svg5"
   inkscape:version="1.1.2 (b8e25be833, 2022-02-05)"
   sodipodi:docname="banner2.svg"
   xmlns:inkscape="http://www.inkscape.org/namespaces/inkscape"
   xmlns:sodipodi="http://sodipodi.sourceforge.net/DTD/sodipodi-0.dtd"
   xmlns:xlink="http://www.w3.org/1999/xlink"
   xmlns="http://www.w3.org/2000/svg"
   xmlns:svg="http://www.w3.org/2000/svg">
  <sodipodi:namedview
     id="namedview7"
     pagecolor="#ffffff"
     bordercolor="#666666"
     borderopacity="1.0"
     inkscape:pageshadow="2"
     inkscape:pageopacity="0.0"
     inkscape:pagecheckerboard="0"
     inkscape:document-units="mm"
     showgrid="false"
     units="px"
     inkscape:zoom="1.0469406"
     inkscape:cx="540.14524"
     inkscape:cy="251.20813"
     inkscape:window-width="1920"
     inkscape:window-height="1017"
     inkscape:window-x="-8"
     inkscape:window-y="-8"
     inkscape:window-maximized="1"
     inkscape:current-layer="layer2" />
  <defs
     id="defs2">
    <linearGradient
       inkscape:collect="always"
       id="linearGradient34502">
      <stop
         style="stop-color:#87ff67;stop-opacity:1;"
         offset="0"
         id="stop34498" />
      <stop
         style="stop-color:#d2ffa8;stop-opacity:0"
         offset="1"
         id="stop34500" />
    </linearGradient>
    <linearGradient
       inkscape:collect="always"
       xlink:href="#linearGradient34502"
       id="linearGradient34504"
       x1="169.40794"
       y1="26.268953"
       x2="169.40794"
       y2="150.64441"
       gradientUnits="userSpaceOnUse" />
  </defs>
  <g
     inkscape:label="레이어 1"
     inkscape:groupmode="layer"
     id="layer1">
    <rect
       style="fill:url(#linearGradient34504);stroke-width:0.752928;fill-opacity:1"
       id="rect31"
       width="270.93332"
       height="95.25"
       x="0"
       y="0" />
  </g>
  <g
     inkscape:groupmode="layer"
     id="layer2"
     inkscape:label="레이어 2">
    <text
       xml:space="preserve"
       style="font-style:normal;font-weight:normal;font-size:16.9333px;line-height:1.25;font-family:sans-serif;fill:#ffd87d;fill-opacity:1;stroke:none;stroke-width:0.264583"
       x="141.88809"
       y="86.133575"
       id="text6937"><tspan
         sodipodi:role="line"
         id="tspan6935"
         style="font-style:italic;font-variant:normal;font-weight:normal;font-stretch:normal;font-size:16.9333px;font-family:GyeonggiTitleVOTF;-inkscape-font-specification:'GyeonggiTitleVOTF Italic';fill:#50bb00;fill-opacity:1;stroke-width:0.264583"
         x="141.88809"
         y="86.133575">5월 봄맞이 행사</tspan></text>
    <rect
       style="fill:#da8249;fill-opacity:1;stroke:#f6ff00;stroke-width:1.865;stroke-miterlimit:4;stroke-dasharray:none;stroke-opacity:0"
       id="rect38148"
       width="9.8560982"
       height="41.951599"
       x="55.851227"
       y="55.345776" />
    <circle
       id="path39451"
       style="fill:#da8249;stroke:#f6ff00;stroke-width:0.264583"
       cx="56.862106"
       cy="65.201881"
       r="0.23727819" />
    <circle
       id="path39453"
       style="fill:#da8249;stroke:#f6ff00;stroke-width:0.264583"
       cx="56.862106"
       cy="65.201881"
       r="0.23727819" />
    <path
       style="fill:#da8249;fill-opacity:1;stroke:#f6ff00;stroke-width:1.865;stroke-miterlimit:4;stroke-dasharray:none;stroke-opacity:0"
       id="path39459"
       d="M 60.724726,67.289931 C 60.320742,66.506356 59.794891,65.789214 59.218022,65.125004 58.359859,64.336292 57.52257,63.526923 56.707238,62.693486 55.86287,61.804158 54.941453,60.992178 54.081536,60.11891 c -0.633857,-0.677778 -1.380251,-1.220563 -2.123913,-1.767517 -0.694029,-0.412531 -1.380654,-0.845201 -2.101609,-1.210641 -0.528397,-0.228936 -1.016249,-0.541798 -1.559002,-0.73524 -0.530622,-0.159242 -1.0878,-0.154583 -1.630654,-0.242869 -0.510944,-0.08734 -1.023112,-0.14533 -1.523177,-0.285252 -0.334796,-0.12345 -0.676637,-0.220441 -1.024292,-0.299207 0,0 -3.234055,2.255414 -3.234055,2.255414 v 0 c 0.340112,0.05569 0.676857,0.127116 0.997826,0.256976 0.503494,0.190588 1.024012,0.264211 1.555824,0.332016 0.533167,0.101658 1.066176,0.127603 1.603013,0.205009 0.551444,0.133377 1.020225,0.462807 1.543327,0.674426 0.722654,0.321688 1.37718,0.770284 2.074723,1.141127 0.733679,0.53268 1.48065,1.045985 2.107491,1.708687 0.880935,0.854548 1.810853,1.659106 2.657723,2.548966 0.809609,0.821963 1.592173,1.671468 2.450783,2.443255 0.566639,0.635302 1.10708,1.323758 1.431073,2.117289 0,0 3.418109,-1.971418 3.418109,-1.971418 z" />
    <path
       style="fill:#da8249;fill-opacity:1;stroke:#f6ff00;stroke-width:1.865;stroke-miterlimit:4;stroke-dasharray:none;stroke-opacity:0"
       id="path39545"
       d="m 64.726531,62.317235 c 0.05439,-0.934897 0.135017,-1.865524 0.23781,-2.795916 0.0719,-0.906806 0.390602,-1.770596 0.768813,-2.590577 0.370157,-0.785352 0.499076,-1.645402 0.770422,-2.463462 0.123351,-0.751848 0.397002,-1.433668 0.747323,-2.103458 0.372811,-0.552659 0.597064,-1.181621 0.955913,-1.741392 0.517271,-0.673278 1.061778,-1.334204 1.6476,-1.948993 0.482939,-0.561565 0.928831,-1.167064 1.476857,-1.665774 0.564015,-0.562319 1.049631,-1.198131 1.620811,-1.753806 0.242136,-0.316617 0.526484,-0.536263 0.870389,-0.730187 0.139232,-0.07851 0.559279,-0.309581 0.422082,-0.227571 -2.843818,1.699885 -3.913143,2.158365 -2.414048,1.487025 0.810543,-0.327454 1.636147,-0.623015 2.469372,-0.888029 0.974802,-0.32172 1.97244,-0.571043 2.974774,-0.790398 0.577406,-0.130553 0.294225,-0.06582 0.849577,-0.194069 0,0 3.10692,-2.367598 3.10692,-2.367598 v 0 c -0.560641,0.131207 -0.276733,0.06295 -0.851651,0.205071 -1.010936,0.208246 -2.016387,0.458404 -3.000825,0.768107 -0.84695,0.245819 -1.673553,0.545803 -2.500299,0.852876 -1.77279,0.770527 -0.507878,0.202631 -4.266801,2.322332 -0.491175,0.27698 -0.907721,0.633347 -1.270806,1.063673 -0.539909,0.583761 -1.058601,1.187895 -1.623222,1.748451 -0.506516,0.550093 -0.993018,1.118394 -1.476796,1.688494 -0.559048,0.65473 -1.14364,1.293556 -1.614733,2.016758 -0.331663,0.584808 -0.612844,1.197131 -0.953937,1.777317 -0.319217,0.692626 -0.528362,1.408158 -0.70595,2.149528 -0.2436,0.812803 -0.393973,1.65612 -0.780571,2.420816 -0.362122,0.857596 -0.636347,1.755092 -0.702609,2.688918 -0.111676,0.93885 -0.155763,1.88392 -0.294222,2.819397 0,0 3.537807,-1.747533 3.537807,-1.747533 z" />
    <circle
       id="path39547"
       style="fill:#da8249;stroke:#f6ff00;stroke-width:0.264583"
       cx="62.421955"
       cy="60.905632"
       r="0.23727819" />
    <circle
       id="path39549"
       style="fill:#da8249;stroke:#f6ff00;stroke-width:0.264583"
       cx="62.421955"
       cy="60.905632"
       r="0.23727819" />
    <path
       style="fill:#da8249;fill-opacity:1;stroke:#f6ff00;stroke-width:1.865;stroke-miterlimit:4;stroke-dasharray:none;stroke-opacity:0"
       id="path39551"
       d="m 63.380193,64.80072 c -0.101997,-0.86183 -0.111194,-1.763112 0.02815,-2.622325 0.320191,-0.781833 0.923134,-1.439572 1.575146,-1.963113 1.028034,-0.906296 3.030011,-2.015757 -2.2642,1.19117 -0.144749,0.08768 0.301124,-0.154808 0.455125,-0.224975 0.422468,-0.192485 0.582621,-0.240218 1.019786,-0.398021 1.134809,-0.277601 2.408018,-0.568669 3.566943,-0.23567 0.18246,0.05243 0.351566,0.143402 0.527347,0.215101 0.714957,0.342757 1.267558,0.917057 1.857856,1.429994 0.520835,0.441724 1.188789,0.532857 1.844178,0.599427 0.81598,0.120568 1.571633,-0.117827 2.31531,-0.429874 0.141463,-0.06988 0.287391,-0.131374 0.424387,-0.209651 1.258705,-0.719214 2.512113,-1.447728 3.761885,-2.182357 0.537313,-0.315836 1.00471,-0.732674 1.534687,-1.061437 0.805463,-0.584705 1.366096,-1.392708 1.929937,-2.195068 0.61554,-0.859226 1.107522,-1.794417 1.570027,-2.742666 0.349572,-0.871182 0.548359,-1.783699 0.513503,-2.721975 0,0 -3.49295,1.793648 -3.49295,1.793648 v 0 c 0.02228,0.878387 -0.191175,1.731759 -0.556794,2.52993 -0.468882,0.932981 -0.982057,1.843746 -1.599197,2.688127 -0.567958,0.788236 -1.177407,1.544788 -2.009984,2.071669 -0.358146,0.249488 -0.703906,0.517636 -1.067861,0.758658 -0.147059,0.09738 -0.601787,0.367927 -0.447911,0.281718 4.559792,-2.554661 3.67206,-2.071802 2.492293,-1.435809 -0.682969,0.343445 -1.389467,0.654846 -2.170115,0.569997 -0.58578,-0.03155 -1.21153,-0.049 -1.708206,-0.397595 -0.641273,-0.51643 -1.218737,-1.125913 -1.972392,-1.487358 -0.194003,-0.09088 -0.379576,-0.202522 -0.582006,-0.272653 -1.173173,-0.406424 -2.484237,-0.135366 -3.670303,0.05362 -2.14444,0.680271 -4.203618,1.767473 -5.87911,3.280418 -0.645443,0.625282 -1.291048,1.325237 -1.478317,2.231935 -0.06948,0.903497 -0.06762,1.816185 -0.01048,2.72011 0,0 3.493257,-1.83497 3.493257,-1.83497 z" />
    <path
       style="fill:#da8249;fill-opacity:1;stroke:#f6ff00;stroke-width:1.865;stroke-miterlimit:4;stroke-dasharray:none;stroke-opacity:0"
       id="path39553"
       d="M 59.04037,57.495175 C 58.85631,56.81211 58.685662,56.12318 58.531937,55.431904 58.348853,54.859528 58.087392,54.326318 57.957621,53.73598 57.747794,53.01942 57.653292,52.27679 57.468071,51.553559 57.333443,50.931622 57.147859,50.32422 56.996644,49.7069 c -0.165859,-0.68815 -0.252169,-1.390825 -0.385429,-2.084898 -0.162287,-0.81728 -0.465963,-1.586553 -0.720659,-2.375924 -0.30358,-0.865254 -0.582649,-1.738781 -0.875784,-2.607622 -0.276971,-0.876213 -0.373044,-1.798029 -0.709102,-2.65538 -0.275987,-0.633685 -0.458525,-1.299459 -0.712057,-1.94323 -0.232593,-0.644009 -0.471122,-1.284599 -0.707049,-1.927251 -0.106129,-0.291621 -0.282908,-0.546722 -0.446275,-0.807627 0,0 -3.402592,1.984258 -3.402592,1.984258 v 0 c 0.15204,0.234664 0.320387,0.460656 0.410242,0.729046 0.231693,0.645798 0.499406,1.27508 0.730993,1.921209 0.239954,0.650917 0.398738,1.332108 0.706792,1.955699 0.354852,0.840653 0.428726,1.761181 0.714338,2.624836 0.290362,0.86958 0.583375,1.738527 0.865931,2.610395 0.257921,0.769173 0.540274,1.529813 0.690531,2.330347 0.119653,0.708094 0.225081,1.418079 0.376788,2.120522 0.16029,0.612534 0.347792,1.216932 0.496649,1.832808 0.181237,0.725519 0.263933,1.469856 0.461055,2.190996 0.147156,0.582684 0.403019,1.118211 0.5861,1.687147 0.168645,0.703768 0.354354,1.402141 0.496689,2.112135 0,0 3.466565,-1.909191 3.466565,-1.909191 z" />
    <path
       style="fill:#da8249;fill-opacity:1;stroke:#f6ff00;stroke-width:1.865;stroke-miterlimit:4;stroke-dasharray:none;stroke-opacity:0"
       id="path39555"
       d="m 55.603481,59.205923 c 0.0241,0.638548 0.01579,1.277866 0.01283,1.916734 0.0039,0.616503 -5.29e-4,1.233025 -0.0029,1.849528 -0.0011,0.36155 -5.29e-4,0.181924 -0.0016,0.538876 0,0 3.511465,-1.789181 3.511465,-1.789181 v 0 c -7.94e-4,-0.35597 -2.65e-4,-0.176871 -0.0016,-0.5373 -0.0024,-0.615503 -0.0068,-1.231019 -0.003,-1.846522 -0.003,-0.643231 -0.01106,-1.286885 0.01283,-1.929807 0,0 -3.528131,1.797672 -3.528131,1.797672 z" />
    <path
       style="fill:#da8249;fill-opacity:1;stroke:#f6ff00;stroke-width:1.865;stroke-miterlimit:4;stroke-dasharray:none;stroke-opacity:0"
       id="path39557"
       d="m 63.421884,57.240802 c -0.07562,-1.336067 -0.09141,-2.67574 0.06779,-4.005424 0.182837,-1.326362 0.611621,-2.582249 1.132384,-3.80819 0.581531,-1.222182 1.265865,-2.388802 1.927882,-3.568047 0.585295,-0.887029 1.014735,-1.864841 1.59309,-2.755061 0.538901,-0.756642 0.93177,-1.596387 1.376228,-2.408621 0.353613,-0.691674 0.64757,-1.409089 0.958792,-2.119818 0.404516,-0.916096 0.894572,-1.797344 1.352856,-2.68973 0.628973,-1.275845 1.175041,-2.584972 1.582188,-3.947946 0.269374,-1.267119 0.631314,-2.508237 0.982583,-3.754131 0.227174,-0.829188 0.111212,-0.421314 0.347255,-1.223801 0,0 -3.489301,1.656908 -3.489301,1.656908 v 0 c -0.223862,0.802259 -0.112639,0.396479 -0.333436,1.217409 -0.36117,1.243923 -0.701511,2.492968 -0.994199,3.754972 -0.402076,1.352444 -0.966136,2.642481 -1.629042,3.887949 -0.477761,0.89994 -0.956008,1.802368 -1.380701,2.728293 -0.317104,0.694018 -0.581676,1.412608 -0.948452,2.083528 -0.433203,0.815676 -0.876935,1.622337 -1.39233,2.389912 -0.537007,0.906674 -0.983369,1.865424 -1.550681,2.75535 -0.660633,1.184926 -1.331791,2.364809 -1.8952,3.600503 -0.523914,1.256458 -0.918075,2.555547 -1.087297,3.911399 -0.126262,1.360336 -0.06054,2.72285 -0.136583,4.086127 0,0 3.516175,-1.791581 3.516175,-1.791581 z" />
    <path
       style="fill:#da8249;fill-opacity:1;stroke:#f6ff00;stroke-width:1.865;stroke-miterlimit:4;stroke-dasharray:none;stroke-opacity:0"
       id="path39559"
       d="m 59.268796,56.919373 c 0.164899,-0.443101 0.379105,-0.925582 0.728755,-1.259224 0.163031,-0.155564 0.805402,-0.546735 0.948084,-0.637196 0.762116,-0.506868 1.774703,-1.093793 1.817859,-2.114891 -0.14887,-0.540822 -0.557823,-0.652053 -1.056605,-0.614238 -1.744083,0.376541 -3.559347,1.245661 -4.70244,2.632397 -0.278214,0.529289 -0.34059,1.122146 -0.376856,1.708997 -0.05488,0.51693 0.09505,0.941544 0.416679,1.334878 0.313166,0.310296 0.690406,0.536422 1.121494,0.620951 2.633152,-0.464481 3.643159,-2.166477 5.528384,-3.385579 -5.528347,3.582434 -3.640714,1.904981 -2.424348,1.486995 0.0039,-0.0013 0.272135,-0.109638 0.334177,-0.03843 0.05576,0.064 0.0732,0.153183 0.109802,0.229772 0.250193,0.923306 0.242367,1.892231 0.255633,2.841926 0.04414,0.9847 -0.149104,1.948733 -0.332293,2.909557 -0.111059,0.811993 -0.25136,1.61581 -0.431062,2.415513 -0.19182,0.651045 -0.417801,1.275321 -0.694666,1.893732 0,0 3.573806,-1.638049 3.573806,-1.638049 v 0 c 0.272987,-0.630965 0.465426,-1.288616 0.638485,-1.953501 0.171595,-0.804494 0.309118,-1.614101 0.424762,-2.428523 0.166851,-0.979897 0.324199,-1.965743 0.274317,-2.964161 -0.0131,-1.008171 -0.01087,-2.032341 -0.295822,-3.008926 -0.114372,-0.24569 -0.19856,-0.552239 -0.475986,-0.683334 -0.08381,-0.0396 -0.186401,-0.0034 -0.277831,0.01185 -1.618488,0.270333 -2.709529,2.660324 -4.311864,2.353397 -0.384268,0.281813 -0.740836,0.593551 -1.118918,0.882595 -0.131379,0.100438 -0.550018,0.365942 -0.404775,0.286866 1.494951,-0.813906 4.171984,-2.385618 2.792254,-1.576419 -0.05236,0.03902 -0.09282,0.105534 -0.157097,0.117052 -0.155239,0.02781 -0.58497,-0.330793 -0.733679,-0.411282 -0.299405,-0.352615 -0.333033,-0.585176 -0.287829,-1.058114 0.04889,-0.519914 0.11448,-1.065162 0.49816,-1.454869 1.015187,-0.798862 3.267532,-1.970673 -2.767761,1.523232 -0.143831,0.08327 0.296719,-0.15001 0.448077,-0.218649 0.06518,-0.02955 0.134554,-0.04881 0.201829,-0.07322 0.123936,-0.01606 0.24538,-0.02887 0.367607,-0.05524 0.122237,-0.02638 0.297611,-0.132014 0.321111,0.05964 -0.247165,0.852127 -1.199737,1.293614 -1.859089,1.772658 -0.189849,0.135308 -0.389988,0.257228 -0.569545,0.405918 -0.542994,0.449657 -0.81412,1.088993 -1.143928,1.690846 0,0 3.621119,-1.604933 3.621119,-1.604933 z" />
    <path
       style="fill:#da8249;fill-opacity:1;stroke:#f6ff00;stroke-width:1.865;stroke-miterlimit:4;stroke-dasharray:none;stroke-opacity:0"
       id="path39561"
       d="m 64.615006,65.284294 c 0.374637,-0.545738 0.593783,-1.161177 0.729232,-1.803731 0.109717,-0.50872 0.03391,-1.140291 0.367067,-1.58179 0.0995,-0.131863 0.240236,-0.226817 0.360352,-0.340223 0.861531,-0.859276 2.059045,-1.362869 2.725729,-2.408512 0.01622,-0.08694 0.05602,-0.172686 0.04866,-0.260819 -0.01781,-0.213291 -0.313902,-0.582289 -0.568902,-0.439975 -3.486544,1.945838 -2.849274,0.969795 -3.694713,2.376738 -0.315291,0.635805 -0.320387,1.360893 -0.356214,2.055149 -0.05181,0.653312 0.134303,1.391153 -0.286689,1.947039 -1.23203,0.786133 -0.15934,0.09929 3.038239,-1.810104 0.04289,-0.02561 -0.08218,0.05765 -0.127312,0.07907 -0.136832,0.06495 -0.266089,-0.0013 -0.398571,-0.04474 -3.961402,1.742207 -3.389423,0.918766 -3.79273,3.192603 -0.149707,0.506153 -0.495634,0.939345 -0.469032,1.480433 0.09921,0.319001 0.430921,0.613016 0.778658,0.406718 3.634531,-2.156217 2.83869,-1.047287 3.838781,-2.588223 0.381074,-0.555442 0.771274,-1.120122 1.023451,-1.749383 0.181274,-0.54157 0.08589,-0.283906 0.282614,-0.774284 0.249846,-0.605182 0.252754,-1.264571 0.389165,-1.893549 0.176702,-0.607325 0.562841,-1.097156 1.089562,-1.435103 -6.058754,3.649747 -3.201318,1.382686 -1.731695,1.495505 0.428985,0.145523 0.11956,0.228422 -0.108945,0.25796 3.292166,-1.920435 4.394153,-2.356701 3.057237,-1.815375 0,0 -3.142731,2.401803 -3.142731,2.401803 v 0 c 1.567465,-0.176884 0.149005,0.01109 3.773932,-2.045393 0.250541,-0.41089 0.06629,-0.826045 -0.336905,-1.054708 -1.7854,-0.554369 -4.176609,1.783453 -5.1606,2.219277 -0.491723,0.455337 -0.840618,1.039609 -0.980104,1.700376 -0.09219,0.615329 -0.157879,1.237621 -0.400772,1.818296 -0.31913,0.875224 -0.737166,1.695815 -1.3394,2.415884 -1.101374,1.228768 -0.279459,0.242409 2.818754,-1.43456 0.0654,-0.0354 -0.109104,0.101814 -0.155699,0.159766 -0.02225,0.02768 -0.127532,0.29037 -0.160753,0.12891 0.08701,-0.491378 0.416861,-0.916178 0.470342,-1.421122 0.04001,-0.242096 0.05618,-0.514958 0.14651,-0.746138 0.02236,-0.05719 0.04543,-0.117192 0.08706,-0.162324 0.03287,-0.03563 0.170247,-0.09283 0.127384,-0.07018 -1.120817,0.59236 -2.240849,1.186209 -3.361275,1.779312 0.186942,0.0118 0.523016,0.280911 0.697334,0.183746 3.471545,-1.935049 2.821537,-0.929725 3.643693,-2.296383 0.232363,-0.672785 0.145902,-1.382003 0.18963,-2.082604 0.04133,-0.641588 0.07274,-1.321805 0.479798,-1.85198 1.070311,-1.054494 -0.05785,0.08673 -3.019706,1.648312 -0.05976,0.03151 0.06879,-0.117946 0.08724,-0.182938 0.0146,-0.0515 0.02759,-0.204984 -0.0024,-0.160594 -0.02905,0.04308 -0.05048,0.09084 -0.07571,0.136255 -0.76091,0.934746 -1.898266,1.458505 -2.697808,2.358265 -0.111622,0.15621 -0.242543,0.300294 -0.334867,0.468633 -0.273767,0.499168 -0.227116,1.107607 -0.362535,1.644631 -0.160104,0.604864 -0.407246,1.177997 -0.823232,1.654694 0,0 3.63882,-1.554641 3.63882,-1.554641 z" />
    <path
       style="fill:#da8249;fill-opacity:1;stroke:#f6ff00;stroke-width:1.865;stroke-miterlimit:4;stroke-dasharray:none;stroke-opacity:0"
       id="path39563"
       d="m 56.173602,88.477417 c -0.627615,1.027573 -1.06046,2.157214 -1.527937,3.262543 -0.383593,0.979061 -0.749734,1.960787 -1.22369,2.900206 -0.624567,1.1396 -1.469231,2.139008 -2.336488,3.100528 -0.596736,0.594108 -1.20633,1.161407 -1.942375,1.576538 -1.944801,1.226258 4.256596,-2.385388 2.26409,-1.307153 -0.124018,0.06711 -0.247629,0.135009 -0.372708,0.20012 -0.118819,0.06185 -0.239281,0.120486 -0.35892,0.180729 0,0 -3.056956,2.437872 -3.056956,2.437872 v 0 c 1.796449,-0.82728 3.474458,-1.906678 5.165232,-2.922348 0.697363,-0.472236 1.310035,-1.04535 1.87133,-1.673309 0.841539,-1.001774 1.688922,-2.011074 2.283925,-3.185364 0.466458,-0.953579 0.854567,-1.941899 1.231173,-2.934028 0.444552,-1.11678 0.901141,-2.240894 1.605237,-3.224927 0,0 -3.601913,1.588593 -3.601913,1.588593 z" />
    <path
       style="fill:#da8249;fill-opacity:1;stroke:#f6ff00;stroke-width:1.865;stroke-miterlimit:4;stroke-dasharray:none;stroke-opacity:0"
       id="path39565"
       d="m 50.912437,98.204289 c 0.852667,-0.181962 1.698103,-0.422902 2.515833,-0.727107 2.074052,-1.223306 7.342473,-4.170609 -0.269748,-0.331364 -0.225214,0.113588 -0.05877,0.882036 0.276111,0.724765 1.269754,-0.596307 2.408341,-1.439214 3.612512,-2.15882 0.625121,-0.790673 0.537028,-1.057571 0.323858,-1.961158 -0.01667,-0.17046 -0.06578,-0.603517 -0.05334,-0.769072 0.0087,-0.115242 0.03345,-0.230309 0.0728,-0.338974 0.02453,-0.06774 0.178355,-0.21844 0.115983,-0.182382 -3.358208,1.941417 -4.137533,1.084807 -3.176257,2.076902 0.394928,0.87997 0.527867,1.835327 0.732697,2.768169 0.15403,0.33052 0.194366,0.999675 0.590497,1.176369 0.137462,0.06131 0.310605,0.142526 0.445241,0.07523 1.347441,-0.673521 2.610805,-1.503535 3.916206,-2.255303 1.281814,-1.217597 2.222037,-2.696551 3.03348,-4.25128 0.418129,-0.843881 1.009206,-1.54926 1.749909,-2.123345 1.357614,-0.749477 -0.250674,0.135747 -2.887017,1.694066 -0.08072,0.04771 0.179221,-0.09872 0.2705,-0.07725 0.146375,0.03444 0.244734,0.165415 0.346152,0.260067 0.645993,0.849852 1.112713,1.81296 1.655852,2.728709 0.28906,0.601371 0.776121,1.058312 1.15488,1.595215 0.333872,0.507273 0.548589,1.075497 0.845373,1.605106 0.259262,0.642577 0.663077,1.130739 1.227791,1.521587 0.345688,0.204784 0.642276,0.478284 0.918768,0.767401 0.205629,0.21502 0.241932,0.21402 0.09305,0.1621 1.068396,-0.69934 2.208022,-1.300392 3.205186,-2.098015 0.106583,-0.08525 -0.254333,-0.10101 -0.374017,-0.166608 -0.6394,-0.350454 -1.236165,-0.824103 -1.817897,-1.261137 -0.748823,-0.521986 -1.295437,-0.902345 -1.845765,-1.643922 -0.453517,-0.676439 -0.841269,-1.3916 -1.184878,-2.128568 -4.727964,2.940079 -3.137736,1.032629 -3.064957,4.131813 -0.01664,0.435798 -0.236972,0.744373 -0.596564,0.988785 -0.151032,0.102656 -0.640339,0.350702 -0.485309,0.25419 2.763612,-1.720453 3.788103,-1.986227 2.085197,-1.450549 -1.157195,0.283562 -2.346034,0.376651 -3.532735,0.306459 -1.005399,-0.105047 -1.999319,-0.305818 -2.996901,-0.470175 -0.996704,-0.204568 -2.011236,-0.303715 -3.007789,-0.505849 -0.08822,-0.02553 -0.179432,-0.04237 -0.264657,-0.0766 -0.01304,-0.0052 0.0259,-0.01265 0.03993,-0.01365 0.07616,-0.0054 0.15539,0.01484 0.228989,-0.0055 0.09879,-0.02727 0.364619,-0.186682 0.276661,-0.134091 -2.900436,1.734177 -4.123391,2.285457 -2.70525,1.630981 0.16107,-0.0463 0.318931,-0.105746 0.483211,-0.138908 0.543417,-0.109702 1.085334,-0.13561 1.637263,-0.175901 0.986999,-0.07205 1.970854,-0.13118 2.960018,-0.159943 1.299218,0.02674 2.575734,0.282419 3.855317,0.482132 0.570379,0.03246 1.103974,0.181469 1.629151,0.392274 0.07083,0.02469 0.141655,0.04938 0.212482,0.07408 0,0 3.265426,-2.226434 3.265426,-2.226434 v 0 c -0.06625,-0.01757 -0.132498,-0.03512 -0.198747,-0.05267 -0.562168,-0.201578 -1.102312,-0.447447 -1.717873,-0.439176 -1.328804,-0.159232 -2.649657,-0.395232 -3.988104,-0.463495 -1.686396,0.03599 -3.378923,0.13371 -5.057323,0.286536 -1.658818,0.560155 -0.626748,0.185968 -4.027427,2.236732 -0.309427,0.186597 -0.464047,0.650904 -0.146817,0.918985 0.08152,0.06889 0.201425,0.07068 0.302138,0.106016 1.018067,0.197689 2.052847,0.273889 3.071689,0.471996 0.994515,0.184028 1.984044,0.414946 2.988397,0.527626 1.221989,0.08555 2.439374,0.02805 3.641944,-0.226824 2.069936,-0.492662 0.761109,-0.118629 4.576292,-2.300423 0.609444,-0.348522 0.959943,-0.924927 0.941155,-1.623396 -0.0099,-0.161813 -0.242666,-2.110322 -0.328692,-2.077402 -1.217639,0.465947 -2.341147,1.148053 -3.51172,1.72208 0.500031,0.651045 0.796719,1.445734 1.274662,2.112947 0.247994,0.362953 0.312389,0.492204 0.608386,0.80005 0.374721,0.389723 0.881144,0.614103 1.301602,0.948335 0.606091,0.441894 1.214001,0.886711 1.828157,1.317219 0.119621,0.0839 0.232669,0.29749 0.36686,0.23975 1.254911,-0.539961 2.4036,-1.299283 3.605401,-1.948923 -0.244613,-0.506955 -0.797071,-0.887317 -1.235538,-1.21844 -0.54959,-0.315204 -0.893271,-0.760193 -1.131499,-1.348103 -0.290092,-0.547478 -0.517504,-1.126678 -0.859221,-1.644999 -0.366445,-0.539811 -0.870548,-0.973098 -1.17407,-1.560571 -0.588441,-0.916686 -1.083995,-1.881417 -1.668947,-2.800032 -0.08027,-0.103532 -0.150397,-0.215789 -0.24081,-0.310589 -1.142781,-1.198221 -3.569848,1.248095 -4.487339,1.940602 -0.675436,0.643282 -1.227071,1.370185 -1.615485,2.225463 -0.805346,1.527787 -1.732023,2.998547 -3.114317,4.077306 0.934389,-0.503637 1.857909,-1.027977 2.803165,-1.510908 0.08987,-0.04591 -0.133393,0.168479 -0.230354,0.196456 -0.0549,0.01585 -0.109676,-0.04457 -0.147434,-0.08746 -0.201203,-0.228531 -0.22746,-0.583147 -0.353817,-0.847034 -0.228317,-0.978411 -0.411242,-1.970805 -0.775988,-2.911785 -0.951151,-1.533308 -0.212911,-0.641223 -3.799142,1.578317 -0.09668,0.05983 -0.06719,0.954159 -0.05782,1.070435 0.01117,0.138478 0.0293,0.276307 0.04396,0.414462 0.154633,0.779259 0.116755,1.002816 -0.511099,1.574914 1.048666,-0.590699 2.036726,-1.305042 3.145999,-1.772098 0.129334,-0.05445 0.03049,0.282425 0.08213,0.412907 0.01341,0.03392 0.02479,-0.06879 0.04117,-0.101397 0.03184,-0.06346 0.170325,-0.209505 0.103224,-0.186309 -1.199996,0.414859 -2.986296,2.515457 -3.550962,1.378247 -0.56342,-1.134706 2.195589,-1.264664 3.293385,-1.896997 -0.738124,0.430546 -1.617231,0.609344 -2.438254,0.807413 0,0 -3.16416,2.379713 -3.16416,2.379713 z" />
    <ellipse
       style="fill:#50bb00;fill-opacity:1;stroke:#f6ff00;stroke-width:1.865;stroke-miterlimit:4;stroke-dasharray:none;stroke-opacity:0"
       id="path37732"
       cx="32.980019"
       cy="57.493908"
       rx="18.069513"
       ry="10.4879" />
    <ellipse
       style="fill:#50bb00;fill-opacity:1;stroke:#f6ff00;stroke-width:1.865;stroke-miterlimit:4;stroke-dasharray:none;stroke-opacity:0"
       id="path37836"
       cx="84.40863"
       cy="48.016888"
       rx="15.92139"
       ry="9.8560982" />
    <ellipse
       style="fill:#50bb00;fill-opacity:1;stroke:#f6ff00;stroke-width:1.865;stroke-miterlimit:4;stroke-dasharray:none;stroke-opacity:0"
       id="path37940"
       cx="44.984241"
       cy="33.86454"
       rx="16.679552"
       ry="8.8452168" />
    <ellipse
       style="fill:#50bb00;fill-opacity:1;stroke:#f6ff00;stroke-width:1.865;stroke-miterlimit:4;stroke-dasharray:none;stroke-opacity:0"
       id="path38044"
       cx="76.827026"
       cy="25.524771"
       rx="14.657787"
       ry="9.0979366" />
    <path
       style="fill:#da8249;fill-opacity:1;stroke:#f6ff00;stroke-width:1.865;stroke-miterlimit:4;stroke-dasharray:none;stroke-opacity:0"
       id="path39680"
       d="m 66.247213,61.005259 c -0.479518,0.527989 -0.846392,1.16038 -1.063151,1.83919 0.0707,0.177842 -0.141018,0.400524 -0.07453,0.58579 0.03764,0.104884 0.103778,0.308809 0.205621,0.263583 3.15586,-1.401482 2.748164,-1.267129 4.208648,-2.46082 1.215221,-0.822984 0.917001,-0.611532 -2.71721,1.567116 -0.08804,0.05278 0.183637,-0.09258 0.279514,-0.129252 0.213357,-0.08161 0.407059,-0.115781 0.631354,-0.09417 0.185904,0.114509 -0.0843,-0.05576 -0.08511,-0.05582 -0.0355,-0.0027 -0.05547,0.04543 -0.08704,0.06189 -0.04062,0.02119 -0.08528,0.0335 -0.127915,0.05025 1.079161,-0.633161 2.158325,-1.266322 3.237486,-1.899484 -0.376578,0.179576 -0.786145,0.262869 -1.170503,0.43134 -1.360294,0.636326 -2.842011,1.600372 -3.962326,2.274763 -0.121579,0.07318 -0.531373,0.497843 -0.649817,0.604539 -0.577688,0.539049 -0.981315,1.197366 -1.345932,1.889477 -0.394134,0.496099 -0.688316,1.049758 -0.881581,1.650753 -0.129858,0.570201 0.114361,1.020311 0.68309,1.15951 1.541928,-0.121803 0.436894,-0.0047 3.686226,-2.154219 0.02619,-0.01733 0.305323,-0.801526 0.34581,-0.890973 0.265261,-0.665618 0.374994,-1.38007 0.476152,-2.085536 0.06314,-0.680926 0.06845,-1.34067 0.459303,-1.92368 0.268418,-0.296653 0.589765,-0.534704 0.933818,-0.736547 0.08442,-0.04952 0.345488,-0.183882 0.261083,-0.134339 -1.037349,0.60892 -2.08018,1.208447 -3.120271,1.812668 0.672799,-0.310131 0.407879,0.0313 0.205259,0.420309 -0.356497,0.517668 -0.804445,0.986211 -1.282253,1.395325 -0.465844,0.460719 -0.738177,1.030563 -0.902364,1.656514 -0.09324,0.551717 -0.367692,1.084268 -0.761714,1.4829 -0.04339,0.0572 -0.08088,0.119383 -0.13016,0.171593 -0.09195,0.09743 -0.214788,0.161777 -0.308877,0.25714 -0.199038,0.201732 -0.328824,0.442714 -0.45656,0.691873 -0.222496,0.518416 -0.343789,1.027234 -0.02625,1.522028 1.427866,1.392759 3.466885,-1.138187 4.357076,-2.447589 0.412747,-0.603276 0.508865,-1.162499 0.491077,-1.873665 -0.0375,-0.589058 -0.06465,-1.178568 -0.07971,-1.768607 -0.03883,-0.550035 -0.0013,-0.916541 0.362103,-1.342049 0.480039,-0.548531 1.004888,-1.055497 1.569048,-1.518192 0.114641,-0.07812 0.229285,-0.156231 0.343927,-0.23435 0,0 -3.632338,1.440445 -3.632338,1.440445 v 0 c -0.109106,0.08632 -0.218212,0.172649 -0.327319,0.258974 -0.562041,0.502065 -1.126342,1.013005 -1.561941,1.63309 -0.260752,0.499603 -0.309547,1.002007 -0.256998,1.560968 0.02154,0.586759 0.06141,1.172707 0.07463,1.759715 -0.01035,0.616889 -0.19627,1.148559 -0.582901,1.639699 -0.102401,0.129397 -0.303334,0.393364 -0.426693,0.511585 -0.04723,0.04526 -0.216382,0.146275 -0.158726,0.115382 1.126,-0.603342 2.233541,-1.241059 3.365291,-1.833546 0.03124,-0.01635 -0.01696,0.07472 -0.04541,0.09554 -0.02072,0.01516 -0.05118,-0.0041 -0.07678,-0.0062 -0.25464,-0.309134 0.07436,-0.815456 0.212511,-1.110144 0.274011,-0.393094 0.64642,-0.687541 0.927105,-1.075515 0.322197,-0.493879 0.565203,-1.020728 0.67704,-1.604709 0.212947,-0.571682 0.532392,-1.07234 0.995916,-1.476999 0.460266,-0.470257 0.948496,-0.9388 1.210355,-1.554829 0.181305,-0.612603 0.161374,-1.376926 -0.692039,-1.216324 -0.875657,0.493844 -3.822676,1.684977 -4.741651,3.117178 -0.282297,0.653544 -0.316783,1.333508 -0.382879,2.03564 -0.110857,0.687573 -0.258363,1.372153 -0.551172,2.008458 -0.06017,0.143756 -0.128775,0.314277 -0.197871,0.455472 -0.03245,0.06631 -0.06238,0.134488 -0.103521,0.195781 -0.03168,0.0472 -0.163036,0.155054 -0.113387,0.127373 3.225427,-1.79837 3.971036,-2.906316 3.151373,-1.734987 -0.386173,0.261332 -0.422633,-0.165068 -0.306047,-0.463812 0.232876,-0.569899 0.574638,-1.076539 0.903381,-1.594551 0.376002,-0.659064 0.801041,-1.274244 1.394052,-1.761495 0.08189,-0.07038 0.417822,-0.361916 0.515226,-0.435441 0.05849,-0.04415 0.247404,-0.157011 0.183774,-0.120658 -5.664713,3.236651 -3.923808,2.357729 -2.818913,1.60146 0.389117,-0.158385 0.750086,-0.371295 1.179647,-0.398656 1.178888,-0.684937 2.367791,-1.352926 3.536667,-2.054812 0.168341,-0.101084 0.186153,-0.323178 0.136938,-0.484754 -0.05602,-0.183914 -0.112395,-0.200104 -0.249301,-0.320754 -0.340019,-0.161378 -0.781836,-0.205619 -1.132186,-0.01135 -3.365334,1.866128 -2.596314,1.284179 -3.964504,2.358559 -0.09556,0.08223 -0.189992,0.165788 -0.286689,0.246679 -0.08937,0.07476 -0.376254,0.2711 -0.271444,0.220208 1.107882,-0.537975 2.165704,-1.178179 3.288146,-1.685079 0.05797,-0.02617 -0.03647,0.209074 0.02397,0.189307 0.155482,-0.05084 -0.166566,-0.484071 0.09177,-0.482084 0.268042,-0.629658 0.633603,-1.233038 1.181889,-1.65786 0,0 -3.672332,1.473737 -3.672332,1.473737 z" />
  </g>
</svg>
