<?xml version="1.0" encoding="utf-8"?>
<!-- Generator: Adobe Illustrator 16.0.0, SVG Export Plug-In . SVG Version: 6.00 Build 0)  -->
<!DOCTYPE svg PUBLIC "-//W3C//DTD SVG 1.1//EN" "http://www.w3.org/Graphics/SVG/1.1/DTD/svg11.dtd">
<svg version="1.1" id="Layer_1" xmlns="http://www.w3.org/2000/svg" xmlns:xlink="http://www.w3.org/1999/xlink" x="0px" y="0px"
	 width="128px" height="128px" viewBox="0 0 128 128" enable-background="new 0 0 128 128" xml:space="preserve">
<g>
	<path fill="none" stroke="#FFD067" stroke-width="3" stroke-miterlimit="10" d="M79.611,52.411V35.327
		c0-8.623-6.989-15.612-15.612-15.612c-8.622,0-15.611,6.99-15.611,15.612v17.084"/>
	<path fill="#FFD067" d="M79.24,44.263c0,4.083-6.822,7.394-15.24,7.394c-8.417,0-15.241-3.311-15.241-7.394H29.896v57.985
		c0,3.336,2.703,6.037,6.036,6.037h56.136c3.332,0,6.035-2.701,6.035-6.037V44.263H79.24z M92.789,91.563H81.721v11.068h-4.219
		V91.563H66.434v-4.219h11.068V76.275h4.219v11.068h11.068V91.563z"/>
</g>
</svg>
