<?xml version="1.0" encoding="utf-8"?>
<!-- Generator: Adobe Illustrator 16.0.0, SVG Export Plug-In . SVG Version: 6.00 Build 0)  -->
<!DOCTYPE svg PUBLIC "-//W3C//DTD SVG 1.1//EN" "http://www.w3.org/Graphics/SVG/1.1/DTD/svg11.dtd">
<svg version="1.1" id="Layer_1" xmlns="http://www.w3.org/2000/svg" xmlns:xlink="http://www.w3.org/1999/xlink" x="0px" y="0px"
	 width="128px" height="128px" viewBox="0 0 128 128" enable-background="new 0 0 128 128" xml:space="preserve">
<path fill="#FFD067" d="M112.184,56.168c0-21.236-21.574-38.451-48.185-38.451c-26.611,0-48.182,17.215-48.182,38.451
	c0,21.234,21.571,38.451,48.182,38.451c4.083,0,8.048-0.408,11.835-1.174c5.568,4.502,14.313,10.854,25.667,16.838
	c-7.222-9.999-10.202-16.989-11.498-21.752C103.339,81.691,112.184,69.758,112.184,56.168z M38.667,62.333
	c-3.406,0-6.167-2.761-6.167-6.167c0-3.406,2.761-6.167,6.167-6.167c3.406,0,6.167,2.761,6.167,6.167
	C44.833,59.573,42.073,62.333,38.667,62.333z M64,62.333c-3.406,0-6.167-2.761-6.167-6.167C57.833,52.761,60.594,50,64,50
	c3.406,0,6.167,2.761,6.167,6.167C70.167,59.573,67.406,62.333,64,62.333z M83.166,56.167c0-3.406,2.762-6.167,6.168-6.167
	c3.405,0,6.166,2.761,6.166,6.167c0,3.406-2.761,6.167-6.166,6.167C85.928,62.333,83.166,59.573,83.166,56.167z"/>
</svg>
