<?xml version="1.0" encoding="utf-8"?>
<!-- Generator: Adobe Illustrator 16.0.0, SVG Export Plug-In . SVG Version: 6.00 Build 0)  -->
<!DOCTYPE svg PUBLIC "-//W3C//DTD SVG 1.1//EN" "http://www.w3.org/Graphics/SVG/1.1/DTD/svg11.dtd">
<svg version="1.1" id="Layer_1" xmlns="http://www.w3.org/2000/svg" xmlns:xlink="http://www.w3.org/1999/xlink" x="0px" y="0px"
	 width="512px" height="512px" viewBox="0 0 512 512" enable-background="new 0 0 512 512" xml:space="preserve">
<g>
	<circle fill="none" stroke="#FFD068" stroke-width="32" stroke-miterlimit="10" cx="252.797" cy="204.966" r="177.473"/>
	<path fill="none" stroke="#FFD068" stroke-width="32" stroke-linecap="round" stroke-miterlimit="10" d="M123.809,204.966
		c0,0,54.181-129.426,108.861-44.826c48.484,75.015,94.493-18.559,142.708,27.445"/>
	<circle fill="#FFD068" cx="192.418" cy="204.966" r="22.87"/>
	<path fill="none" stroke="#FFD068" stroke-width="32" stroke-linecap="round" stroke-miterlimit="10" d="M196.078,291.871
		c0,0,37.507-45.739,65.866-16.465c28.358,29.273,39.299,32.932,59.443,16.465"/>
</g>
<g>
	<circle fill="none" stroke="#FFD068" stroke-width="14" stroke-miterlimit="10" cx="183.433" cy="446.707" r="32.635"/>
	<g>
		<circle fill="none" stroke="#FFD068" stroke-width="14" stroke-miterlimit="10" cx="247.416" cy="446.441" r="12.487"/>
		<path fill="none" stroke="#FFD068" stroke-width="14" stroke-linecap="round" stroke-miterlimit="10" d="M234.929,446.441
			c0,0-1.264,19.108-9.651,32.9"/>
	</g>
	<g>
		<circle fill="none" stroke="#FFD068" stroke-width="14" stroke-miterlimit="10" cx="289.682" cy="446.441" r="12.486"/>
		<path fill="none" stroke="#FFD068" stroke-width="14" stroke-linecap="round" stroke-miterlimit="10" d="M277.195,446.441
			c0,0-1.264,19.108-9.65,32.9"/>
	</g>
	<path fill="none" stroke="#FFD068" stroke-width="14" stroke-linecap="round" stroke-miterlimit="10" d="M354.795,423.519
		c0,0-5.865-13.89-23.869-8.371c-8.824,2.704-16.371,10.083-11.127,25.114c1.061,3.037,7.08,10.273,17.396,9.322
		c8.893-0.819,16.512,7.604,16.992,12.177c2.428,23.022-54.414,17.124-54.414,17.124"/>
</g>
</svg>
